# xmcd
#
# Track frame offsets:
#	150
#	19339
#	36447
#	49886
#	65888
#	84345
#	97245
#	111933
#	129229
#	149890
#	171593
#	187590
#	204355
#
# Disc length: 2871 seconds
#
# Revision: 0
# Processed by: cddbd v1.4PL0 Copyright (c) Steve Scherf et al.
# Submitted via: EasyCDDAExtractor 4.5.0.1
#
DISCID=c50b350d
DTITLE=Justament - Teadjamees
DYEAR=2001
DGENRE=country
TTITLE0=Võitjad
TTITLE1=Mis juhtus eile?
TTITLE2=Kutse
TTITLE3=Kuutõbine
TTITLE4=Jänesel on suur jõud
TTITLE5=@-i laul
TTITLE6=Naer
TTITLE7=Laul, tants ja viin
TTITLE8=Vahtramahl
TTITLE9=Õhupall
TTITLE10=Virmalised
TTITLE11=Teadjamees
TTITLE12=Vaikselt
EXTD=
EXTT0=
EXTT1=
EXTT2=
EXTT3=
EXTT4=
EXTT5=
EXTT6=
EXTT7=
EXTT8=
EXTT9=
EXTT10=
EXTT11=
EXTT12=
PLAYORDER=
